<svg width="18" height="18" viewBox="0 0 18 18" fill="none" xmlns="http://www.w3.org/2000/svg">
<path d="M8.89583 4.4405C6.37202 4.4405 4.33631 6.47622 4.33631 9.00003C4.33631 11.5238 6.37202 13.5596 8.89583 13.5596C11.4196 13.5596 13.4553 11.5238 13.4553 9.00003C13.4553 6.47622 11.4196 4.4405 8.89583 4.4405ZM8.89583 11.9643C7.26487 11.9643 5.93154 10.635 5.93154 9.00003C5.93154 7.36511 7.26091 6.03574 8.89583 6.03574C10.5307 6.03574 11.8601 7.36511 11.8601 9.00003C11.8601 10.635 10.5268 11.9643 8.89583 11.9643ZM14.7053 4.25399C14.7053 4.84526 14.2292 5.31749 13.6419 5.31749C13.0506 5.31749 12.5784 4.84129 12.5784 4.25399C12.5784 3.66669 13.0546 3.1905 13.6419 3.1905C14.2292 3.1905 14.7053 3.66669 14.7053 4.25399ZM17.7252 5.33336C17.6577 3.90875 17.3323 2.64685 16.2887 1.60716C15.249 0.56748 13.9871 0.242083 12.5625 0.170654C11.0942 0.0873209 6.69345 0.0873209 5.22519 0.170654C3.80456 0.238115 2.54266 0.563512 1.49901 1.6032C0.455357 2.64288 0.133928 3.90479 0.0624999 5.32939C-0.0208333 6.79765 -0.0208333 11.1984 0.0624999 12.6667C0.12996 14.0913 0.455357 15.3532 1.49901 16.3929C2.54266 17.4326 3.80059 17.758 5.22519 17.8294C6.69345 17.9127 11.0942 17.9127 12.5625 17.8294C13.9871 17.7619 15.249 17.4365 16.2887 16.3929C17.3284 15.3532 17.6538 14.0913 17.7252 12.6667C17.8085 11.1984 17.8085 6.80161 17.7252 5.33336ZM15.8284 14.2421C15.5188 15.0199 14.9196 15.6191 14.1379 15.9326C12.9673 16.3969 10.1895 16.2897 8.89583 16.2897C7.60218 16.2897 4.82043 16.3929 3.65377 15.9326C2.87599 15.6231 2.27678 15.0238 1.96329 14.2421C1.49901 13.0715 1.60615 10.2937 1.60615 9.00003C1.60615 7.70638 1.50297 4.92463 1.96329 3.75796C2.27282 2.98018 2.87202 2.38097 3.65377 2.06748C4.8244 1.6032 7.60218 1.71034 8.89583 1.71034C10.1895 1.71034 12.9712 1.60716 14.1379 2.06748C14.9157 2.37701 15.5149 2.97621 15.8284 3.75796C16.2926 4.9286 16.1855 7.70638 16.1855 9.00003C16.1855 10.2937 16.2926 13.0754 15.8284 14.2421Z" fill="#101828"/>
</svg>
