<svg width="21" height="20" viewBox="0 0 21 20" fill="none" xmlns="http://www.w3.org/2000/svg">
<path d="M19.359 0H2.2117C1.42599 0 0.787598 0.647322 0.787598 1.44196V18.558C0.787598 19.3527 1.42599 20 2.2117 20H19.359C20.1447 20 20.7876 19.3527 20.7876 18.558V1.44196C20.7876 0.647322 20.1447 0 19.359 0ZM6.83224 17.1429H3.86795V7.59821H6.8367V17.1429H6.83224ZM5.3501 6.29464C4.3992 6.29464 3.63135 5.52232 3.63135 4.57589C3.63135 3.62946 4.3992 2.85714 5.3501 2.85714C6.29653 2.85714 7.06885 3.62946 7.06885 4.57589C7.06885 5.52679 6.30099 6.29464 5.3501 6.29464ZM17.9438 17.1429H14.9796V12.5C14.9796 11.3929 14.9572 9.96875 13.4394 9.96875C11.8947 9.96875 11.6581 11.1741 11.6581 12.4196V17.1429H8.69385V7.59821H11.5376V8.90179H11.5778C11.9751 8.15179 12.9438 7.36161 14.3858 7.36161C17.3858 7.36161 17.9438 9.33929 17.9438 11.9107V17.1429Z" fill="#101828"/>
</svg>
